<?xml version="1.0" ?><svg viewBox="0 0 64 64" xmlns="http://www.w3.org/2000/svg"><defs><style>.cls-1{fill:#e5936b;}.cls-2{fill:#efc89d;}.cls-3{fill:#ebb87f;}.cls-4{fill:#748a95;}.cls-5{fill:#617880;}.cls-6{fill:#dd5891;}.cls-7{fill:#172335;}</style></defs><g data-name="Evil Tree" id="Evil_Tree"><path class="cls-1" d="M19.71,32.93l-7.47-6.47.49-3.92L17,24.18l-1-2.72,1.45-1.82L20.33,23l2.2,5Z" id="path70493-9"/><path class="cls-1" d="M42.69,32.74,47.6,28.6,50,30,48,32.93l3.2-.61.52,3.53-8.52,5.67-2.79-4.39Z" id="path70916-3"/><path class="cls-2" d="M43.57,46.87,41.24,9.48A1.48,1.48,0,0,0,39.76,8h-.42a2.06,2.06,0,0,0-2,1.4,1,1,0,0,1-1.78,0v0A2.12,2.12,0,0,0,33.6,8h-5a1.3,1.3,0,0,0-1.29,1.47A7.74,7.74,0,0,1,27,12.78l-.28.86a.94.94,0,0,1-1.83-.19l-.45-4A1.65,1.65,0,0,0,22.79,8h-.14a1.48,1.48,0,0,0-1.48,1.48L18.84,46.87l12.36,3.9Z" id="rect67555-6"/><path class="cls-3" d="M39.34,8a2.07,2.07,0,0,0-2,1.4,1.36,1.36,0,0,1-.13.24l2.32,37.23h4L41.24,9.48A1.48,1.48,0,0,0,39.76,8Z" id="path120830"/><path class="cls-4" d="M12.72,54v-1.2a5.9,5.9,0,0,1,5.91-5.91H43.78a5.9,5.9,0,0,1,5.91,5.91V54a2,2,0,0,1-2,2H14.74A2,2,0,0,1,12.72,54Z" id="rect64865-5"/><path class="cls-5" d="M39.78,46.87a5.9,5.9,0,0,1,5.91,5.91V54a2,2,0,0,1-2,2h4a2,2,0,0,0,2-2v-1.2a5.9,5.9,0,0,0-5.91-5.91Z" id="path127506"/><path class="cls-6" d="M29.58,25.16a3.11,3.11,0,1,1-5.39-3.11Z" id="path71348-7"/><path class="cls-6" d="M32.83,25.16a3.11,3.11,0,1,0,5.38-3.11Z" id="path71624-4"/><path class="cls-4" d="M38.33,30.15a7.13,7.13,0,1,1-14.25,0,15.12,15.12,0,0,0,7.12,1.7A15.13,15.13,0,0,0,38.33,30.15Z" id="path71692-5"/><path class="cls-7" d="M12.22,21.68a1,1,0,0,0-.48.73l-.49,3.92a1,1,0,0,0,.34.88l7.09,6.15L17.9,45.91a6.92,6.92,0,0,0-6.18,6.87V54a3,3,0,0,0,3,3H47.67a3,3,0,0,0,3-3v-1.2a6.92,6.92,0,0,0-6.18-6.87L44.27,42l8-5.35a1,1,0,0,0,.44-1l-.52-3.54a1,1,0,0,0-.41-.67,1,1,0,0,0-.77-.17l-.85.17.6-.92a1,1,0,0,0,.15-.77,1,1,0,0,0-.46-.64l-2.37-1.42a1,1,0,0,0-1.16.09l-3.4,2.85L42.24,9.48A2.48,2.48,0,0,0,39.76,7h-.42a3.09,3.09,0,0,0-2.86,1.93A3.13,3.13,0,0,0,33.6,7h-5a2.31,2.31,0,0,0-2.29,2.59A6.58,6.58,0,0,1,26,12.48l-.19.59-.42-3.71A2.65,2.65,0,0,0,22.79,7h-.14a2.47,2.47,0,0,0-2.48,2.42l-.69,11.09L18.13,19a1.14,1.14,0,0,0-.77-.34,1,1,0,0,0-.76.38l-1.45,1.81a1,1,0,0,0-.16,1l.24.62-2.14-.83A1,1,0,0,0,12.22,21.68Zm36.47,31.1V54a1,1,0,0,1-1,1H14.74a1,1,0,0,1-1-1v-1.2a4.91,4.91,0,0,1,4.91-4.91H43.78A4.91,4.91,0,0,1,48.69,52.78Zm-1-23,.86.52-1.25,1.88-2.08,1.55a1,1,0,0,0-.2,1.39,1,1,0,0,0,1.4.21l2-1.51,1.94-.37.28,1.87-6.55,4.36-.41-6.55ZM22.65,9h.14a.66.66,0,0,1,.66.58l.45,4a1.94,1.94,0,0,0,3.77.38l.28-.86a8.82,8.82,0,0,0,.35-3.75.3.3,0,0,1,.07-.24A.31.31,0,0,1,28.6,9h5a1.14,1.14,0,0,1,1.07.77A1.94,1.94,0,0,0,36.51,11a1.91,1.91,0,0,0,1.81-1.31,1.08,1.08,0,0,1,1-.72h.42a.49.49,0,0,1,.48.54l2.27,36.33h-5l0-4.89a1,1,0,1,0-2,0l0,4.88H19.9L22.17,9.48A.47.47,0,0,1,22.65,9ZM13.56,23.93l3,1.18a1,1,0,0,0,1.29-1.29l-.83-2.18.35-.44,1.88,2.13-.23,3.77-.3-.28a1,1,0,0,0-1.38,1.44l1.52,1.45-.08,1.14-5.53-4.8Z"/><path class="cls-7" d="M24.83,27.16a4.12,4.12,0,0,0,5.62-1.5,1,1,0,0,0-.37-1.37L24.7,21.18a1,1,0,0,0-1.37.37,4.11,4.11,0,0,0,1.5,5.61ZM28,25.4a2,2,0,0,1-.57.24,2.1,2.1,0,0,1-2.58-1.49,2.12,2.12,0,0,1-.07-.61Z"/><path class="cls-7" d="M34.46,27.57a4.11,4.11,0,0,0,4.62-6,1,1,0,0,0-.61-.47,1.06,1.06,0,0,0-.76.1l-5.38,3.11A1,1,0,0,0,32,25.66,4.08,4.08,0,0,0,34.46,27.57Zm3.17-4A2.11,2.11,0,0,1,35,25.64a1.86,1.86,0,0,1-.56-.24Z"/><path class="cls-7" d="M23.58,29.28a1,1,0,0,0-.5.87,8.13,8.13,0,1,0,16.25,0,1,1,0,0,0-.5-.86,1,1,0,0,0-1,0,14.81,14.81,0,0,1-13.23,0A1,1,0,0,0,23.58,29.28Zm7.62,3.57a17.24,17.24,0,0,0,5.9-1.05,6.13,6.13,0,0,1-11.8,0A17.34,17.34,0,0,0,31.2,32.85Z"/><path class="cls-7" d="M36.68,18.6h0a1,1,0,0,0,1-1L37.61,13a1,1,0,0,0-1-1h0a1,1,0,0,0-1,1l.07,4.55A1,1,0,0,0,36.68,18.6Z"/><path class="cls-7" d="M24.61,37.25h0a1,1,0,0,0-1,1l0,4.75a1,1,0,0,0,1,1h0a1,1,0,0,0,1-1l0-4.75A1,1,0,0,0,24.61,37.25Z"/><path class="cls-7" d="M29,21.43a1,1,0,0,0,1-1V17.38a1,1,0,1,0-2,0v3.05A1,1,0,0,0,29,21.43Z"/></g></svg>