<?xml version="1.0" ?><svg viewBox="0 0 64 64" xmlns="http://www.w3.org/2000/svg"><defs><style>.cls-1{fill:#f0f4f7;}.cls-2{fill:#efc89d;}.cls-3{fill:#748a95;}.cls-4{fill:#d0e1e8;}.cls-5{fill:#e0e9ee;}.cls-6{fill:#617880;}.cls-7{fill:#ebb87f;}.cls-8{fill:#172335;}</style></defs><g id="Robot"><path class="cls-1" d="M17.49,48.54a9.47,9.47,0,0,0-3.64,5.57A1.58,1.58,0,0,0,15.4,56H48.6a1.58,1.58,0,0,0,1.55-1.89,9.47,9.47,0,0,0-3.64-5.57Z" id="path216894"/><path class="cls-2" d="M26.92,41.22v1.63l-4.8,2.81L32,52.55l9.88-6.89-4.8-2.81V41.22Z" id="path213889"/><path class="cls-3" d="M12.59,30.52A4.58,4.58,0,0,1,8,25.93V10.29a2.3,2.3,0,0,1,4.59,0V23L14,26.76Z" id="rect10078-0"/><path class="cls-3" d="M51.41,30.52A4.58,4.58,0,0,0,56,25.93V10.29a2.3,2.3,0,0,0-4.59,0V23l-.9,3.76Z" id="path10672-7"/><path class="cls-4" d="M46.45,19.81h1.77A3.18,3.18,0,0,1,51.41,23v9.27a3.18,3.18,0,0,1-3.19,3.19H46.45l-2-7.82Z" id="path9751-3"/><path class="cls-4" d="M17.55,19.81H15.78A3.18,3.18,0,0,0,12.59,23v9.27a3.18,3.18,0,0,0,3.19,3.19h1.77l2-7.82Z" id="path12099-8"/><path class="cls-4" d="M24.17,14.05V12.28a3.19,3.19,0,0,1,3.19-3.19h9.28a3.19,3.19,0,0,1,3.19,3.19v1.77l-7.83,2Z" id="path19466-1"/><path class="cls-1" d="M22,14.05a4.47,4.47,0,0,0-4.48,4.48V36.74A4.47,4.47,0,0,0,22,41.22h2.14L32,37.79l7.82,3.43H42a4.47,4.47,0,0,0,4.48-4.48V18.53A4.47,4.47,0,0,0,42,14.05Z" id="rect8999-4"/><path class="cls-3" d="M30.3,24.76a4.14,4.14,0,1,1-4.13-4.13A4.13,4.13,0,0,1,30.3,24.76Z" id="path12516-6"/><path class="cls-3" d="M24.17,41.22v-5a1.66,1.66,0,0,1,1.67-1.66H38.16a1.66,1.66,0,0,1,1.67,1.66v5Z" id="path12631-8"/><path class="cls-3" d="M42,24.76a4.14,4.14,0,1,1-4.14-4.13A4.13,4.13,0,0,1,42,24.76Z" id="circle13676-8"/><path class="cls-1" d="M22.12,45.66l-2.8,1.63a16.85,16.85,0,0,0-1.83,1.25h0l12,3.58a8.82,8.82,0,0,0,5,0l12-3.58h0a16.85,16.85,0,0,0-1.83-1.25l-2.8-1.63-9.88,3Z" id="path15405-3"/><path class="cls-5" d="M38,14.05a4.47,4.47,0,0,1,4.48,4.48V36.74A4.47,4.47,0,0,1,38,41.22h4a4.47,4.47,0,0,0,4.48-4.48V18.53A4.47,4.47,0,0,0,42,14.05Z" id="path198120"/><path class="cls-6" d="M35.15,34.56a1.66,1.66,0,0,1,1.66,1.66v5h3v-5a1.66,1.66,0,0,0-1.66-1.66Z" id="path200653"/><path class="cls-6" d="M37.83,20.63a3.93,3.93,0,0,0-1.47.29,4.14,4.14,0,0,1,0,7.68,3.93,3.93,0,0,0,1.47.29,4.13,4.13,0,1,0,0-8.26Z" id="path200651"/><path class="cls-6" d="M26.17,20.63a3.94,3.94,0,0,0-1.48.29,4.14,4.14,0,0,1,0,7.68,4.12,4.12,0,1,0,1.48-8Z" id="path200620"/><path class="cls-6" d="M10.29,8a2.27,2.27,0,0,0-1.19.34,2.3,2.3,0,0,1,1.09,1.95V29.84a4.57,4.57,0,0,0,2.4.68V10.29A2.29,2.29,0,0,0,10.29,8ZM53.71,8a2.33,2.33,0,0,0-1.2.34,2.28,2.28,0,0,1,1.1,1.95V24.74a3.59,3.59,0,0,1-2.2,3.31v2.47A4.58,4.58,0,0,0,56,25.93V10.29A2.28,2.28,0,0,0,53.71,8Z" id="path209825"/><path class="cls-5" d="M42.16,48.54a15.11,15.11,0,0,1,1.37,1,9.51,9.51,0,0,1,3.63,5.57,1.57,1.57,0,0,1-.1.94H48.6a1.58,1.58,0,0,0,1.55-1.89,9.47,9.47,0,0,0-3.64-5.57Z" id="path219775"/><path class="cls-7" d="M34.09,41.22V43.8l4.81,2.81.88.52,2.1-1.47-4.8-2.81V41.22Z" id="path219777"/><path class="cls-3" d="M22.12,45.66l-2.8,1.63a16.85,16.85,0,0,0-1.83,1.25h0l12,3.58a8.82,8.82,0,0,0,5,0l12-3.58h0a16.85,16.85,0,0,0-1.83-1.25l-2.8-1.63-9.88,3Z" id="path216805"/><path class="cls-6" d="M41.88,45.66l-3.05.91.07,0,2.79,1.64a15.4,15.4,0,0,1,1.78,1.2l3-.91h0a16.85,16.85,0,0,0-1.83-1.25Z" id="path219779"/><path class="cls-8" d="M53.71,7a3.3,3.3,0,0,0-3.3,3.29v9.16a4.1,4.1,0,0,0-2.19-.64h-.77v-.28A5.49,5.49,0,0,0,42,13.05H40.83v-.77a4.19,4.19,0,0,0-4.19-4.19H27.36a4.19,4.19,0,0,0-4.19,4.19v.77H22a5.49,5.49,0,0,0-5.48,5.48v.28h-.77a4.1,4.1,0,0,0-2.19.64V10.29a3.3,3.3,0,0,0-6.59,0V25.93a5.58,5.58,0,0,0,4.59,5.49v.85a4.2,4.2,0,0,0,4.19,4.19h.77v.28A5.49,5.49,0,0,0,22,42.22h3.89v.06l-7.1,4.15c-3.31,1.93-5.36,4.52-6,7.49A2.58,2.58,0,0,0,15.4,57H48.6a2.58,2.58,0,0,0,2.53-3.08c-.59-3-2.64-5.56-6-7.49l-7.1-4.15v-.06H42a5.49,5.49,0,0,0,5.48-5.48v-.28h.77a4.2,4.2,0,0,0,4.19-4.19v-.85A5.58,5.58,0,0,0,57,25.93V10.29A3.3,3.3,0,0,0,53.71,7ZM25.17,12.28a2.2,2.2,0,0,1,2.19-2.19h9.28a2.2,2.2,0,0,1,2.19,2.19v.77H25.17ZM9,25.93V10.29a1.3,1.3,0,0,1,2.59,0V23h0v6.36A3.59,3.59,0,0,1,9,25.93Zm6.78,8.53a2.19,2.19,0,0,1-2.19-2.19V30.52h0V23h0a2.19,2.19,0,0,1,2.19-2.19h.77V34.46Zm23,5.76H25.17v-4a.67.67,0,0,1,.67-.66H38.16a.67.67,0,0,1,.67.66ZM49.17,54.31a.58.58,0,0,1-.57.69H15.4a.58.58,0,0,1-.57-.69,8.23,8.23,0,0,1,2.89-4.66l11.47,3.43a9.83,9.83,0,0,0,5.62,0l11.47-3.43A8.23,8.23,0,0,1,49.17,54.31Zm-5-6.13-10,3a7.77,7.77,0,0,1-4.48,0l-10-3,0,0,2.42-1.42,9.46,2.83a1,1,0,0,0,.58,0l9.46-2.83,2.42,1.42Zm-7.65-4.46,2.82,1.64L32,47.57l-7.39-2.21,2.82-1.64a1,1,0,0,0,.49-.87v-.63h8.16v.63A1,1,0,0,0,36.57,43.72Zm5.4-3.5H40.83v-4a2.67,2.67,0,0,0-2.67-2.66H25.84a2.67,2.67,0,0,0-2.67,2.66v4H22a3.48,3.48,0,0,1-3.48-3.48V18.53A3.48,3.48,0,0,1,22,15.05H42a3.48,3.48,0,0,1,3.48,3.48V36.74A3.48,3.48,0,0,1,42,40.22Zm8.44-7.95a2.19,2.19,0,0,1-2.19,2.19h-.77V20.81h.77A2.19,2.19,0,0,1,50.41,23ZM55,25.93a3.59,3.59,0,0,1-2.59,3.43V10.29a1.3,1.3,0,0,1,2.59,0Z"/><path class="cls-8" d="M26.17,19.63a5.13,5.13,0,1,0,5.13,5.13A5.14,5.14,0,0,0,26.17,19.63Zm0,8.26a3.13,3.13,0,1,1,3.13-3.13A3.14,3.14,0,0,1,26.17,27.89Z"/><path class="cls-8" d="M37.83,19.63A5.13,5.13,0,1,0,43,24.76,5.13,5.13,0,0,0,37.83,19.63Zm0,8.26A3.13,3.13,0,1,1,41,24.76,3.13,3.13,0,0,1,37.83,27.89Z"/><circle class="cls-8" cx="26.17" cy="24.76" r="1"/><circle class="cls-8" cx="37.83" cy="24.76" r="1"/></g></svg>